 <svg version="1.0" xmlns="http://www.w3.org/2000/svg"  width="900.000000pt" height="900.000000pt" viewBox="0 0 900.000000 900.000000"  preserveAspectRatio="xMidYMid meet">  <g transform="translate(0.000000,900.000000) scale(0.100000,-0.100000)" fill="#000000" stroke="none"> <path d="M2545 6994 c-83 -17 -168 -41 -210 -58 -47 -20 -109 -47 -125 -57 -8 -4 -35 -18 -60 -31 -177 -88 -396 -297 -464 -443 -11 -22 -25 -52 -33 -67 -7 -14 -13 -33 -13 -42 0 -8 -6 -30 -14 -48 -27 -63 -38 -206 -26 -319 7 -57 18 -119 26 -137 8 -18 14 -41 14 -52 0 -19 19 -69 46 -122 39 -74 -3 -138 -89 -138 -25 0 -64 -7 -87 -15 -23 -8 -53 -15 -66 -15 -22 0 -40 -6 -134 -47 -125 -55 -199 -104 -279 -185 -49 -50 -81 -86 -81 -93 0 -3 -11 -21 -24 -38 -50 -68 -113 -227 -126 -317 -4 -30 -13 -75 -19 -100 -25 -106 -8 -403 31 -515 5 -16 13 -46 17 -65 4 -19 12 -44 19 -55 6 -11 20 -40 32 -65 60 -127 161 -243 285 -325 45 -30 158 -85 175 -85 8 0 24 -7 34 -15 11 -8 32 -15 47 -15 14 0 43 -7 62 -15 20 -8 57 -15 81 -15 113 0 163 -62 121 -149 -8 -17 -22 -45 -30 -62 -8 -17 -15 -38 -15 -47 0 -9 -6 -34 -14 -57 -24 -68 -39 -242 -27 -315 6 -36 12 -81 14 -100 4 -35 18 -78 42 -135 7 -16 16 -37 19 -45 3 -8 15 -28 26 -45 11 -16 23 -37 27 -45 29 -66 254 -290 291 -290 6 0 12 -3 14 -7 5 -12 58 -47 108 -72 46 -23 67 -34 98 -51 9 -6 24 -13 32 -16 8 -3 29 -11 45 -18 48 -21 98 -38 125 -43 14 -2 52 -11 85 -20 71 -17 271 -14 345 7 84 23 176 63 235 101 17 10 37 22 45 26 8 3 17 9 20 12 3 4 21 18 40 33 59 44 104 90 174 176 91 110 117 109 206 -8 73 -97 238 -238 310 -266 26 -10 84 -36 113 -50 16 -8 38 -14 50 -14 12 0 40 -7 62 -15 48 -17 260 -20 302 -4 15 6 48 14 73 19 46 8 88 21 148 46 59 24 107 46 122 55 8 5 24 13 35 18 11 5 37 21 58 35 21 14 40 26 43 26 3 0 42 28 87 62 177 133 284 281 353 488 25 76 26 375 1 434 -10 21 -17 49 -17 61 0 13 -7 38 -16 57 -9 18 -23 46 -30 61 -8 16 -14 48 -14 73 0 41 2 45 42 64 23 11 62 20 87 20 41 0 82 10 176 42 17 6 42 13 57 15 15 3 33 11 39 19 6 8 19 14 29 14 10 0 23 7 30 15 7 8 17 15 22 15 18 0 116 71 164 119 92 91 131 144 173 236 13 28 28 59 34 70 6 11 14 36 18 55 4 19 12 49 17 65 18 49 42 237 42 321 1 153 -53 414 -101 494 -5 8 -12 22 -15 30 -3 8 -10 22 -15 30 -5 8 -12 22 -16 30 -34 77 -218 253 -304 289 -13 6 -31 15 -39 20 -47 26 -80 41 -94 41 -8 0 -30 6 -48 14 -48 20 -161 46 -201 46 -20 0 -49 8 -66 18 -27 15 -31 23 -31 59 0 23 6 54 14 70 28 56 46 104 46 122 0 10 7 36 17 57 24 57 24 384 0 431 -9 18 -17 40 -17 49 0 16 -42 105 -85 184 -29 51 -147 181 -208 227 -34 26 -65 51 -68 56 -6 8 -38 28 -69 43 -8 4 -17 11 -20 14 -6 8 -34 23 -137 73 -43 21 -91 45 -106 53 -16 7 -38 14 -48 14 -11 0 -30 5 -42 12 -12 6 -44 15 -72 20 -27 4 -70 12 -95 17 -66 15 -148 13 -213 -4 -32 -8 -70 -15 -86 -15 -15 0 -36 -7 -47 -15 -10 -8 -27 -15 -37 -15 -26 0 -141 -64 -217 -120 -63 -47 -140 -124 -226 -225 -32 -38 -47 -48 -70 -48 -34 0 -45 9 -125 108 -60 76 -172 173 -247 217 -44 26 -53 30 -84 43 -7 3 -20 9 -28 14 -24 14 -82 32 -130 42 -25 5 -65 13 -90 19 -63 13 -152 11 -235 -6z m250 -128 c148 -14 321 -114 485 -282 81 -82 159 -134 203 -134 50 0 109 41 237 165 133 128 209 179 340 226 58 21 82 24 225 24 126 -1 173 -5 220 -19 59 -18 183 -67 218 -87 10 -5 44 -24 75 -41 75 -40 205 -143 264 -207 63 -71 120 -169 154 -271 27 -78 29 -96 28 -220 -1 -115 -5 -149 -28 -230 -47 -163 -55 -200 -49 -238 8 -52 36 -95 93 -140 40 -32 68 -44 160 -67 206 -51 324 -109 429 -214 98 -99 157 -212 198 -383 14 -57 18 -116 18 -268 0 -172 -3 -205 -24 -285 -12 -49 -45 -133 -72 -187 -41 -80 -64 -109 -132 -175 -107 -102 -204 -152 -387 -199 -151 -39 -194 -62 -244 -131 -50 -70 -52 -102 -12 -245 59 -207 68 -312 42 -450 -28 -142 -128 -314 -239 -410 -242 -209 -556 -327 -792 -298 -190 23 -312 90 -505 275 -63 61 -131 118 -152 128 -84 40 -139 14 -302 -142 -178 -170 -311 -242 -481 -261 -106 -12 -279 11 -380 50 -284 109 -492 279 -593 484 -60 121 -72 173 -72 314 1 116 13 188 54 326 42 141 33 186 -52 270 -52 50 -57 53 -237 98 -364 92 -567 351 -590 753 -16 298 50 543 191 705 108 123 238 193 461 245 121 29 164 56 224 138 35 49 37 93 9 192 -63 216 -77 385 -45 524 43 183 188 364 395 497 144 92 319 159 453 172 79 8 102 8 212 -2z"/> <path d="M7015 6741 c-70 -7 -126 -21 -178 -47 -16 -8 -33 -14 -37 -14 -20 0 -133 -74 -185 -122 -65 -59 -153 -172 -171 -218 -3 -8 -12 -27 -20 -42 -8 -14 -14 -33 -14 -41 0 -7 -8 -29 -17 -48 -17 -32 -18 -134 -21 -1661 -1 -939 1 -1655 7 -1695 10 -78 39 -168 72 -223 5 -8 12 -22 16 -30 25 -57 178 -219 227 -241 12 -5 35 -18 51 -29 17 -11 37 -22 45 -25 8 -3 28 -13 43 -21 16 -7 37 -14 48 -14 11 0 33 -7 49 -15 43 -22 357 -22 399 0 17 8 40 15 51 15 12 0 34 6 48 14 15 7 45 22 67 32 42 20 146 93 181 128 41 42 113 143 141 201 39 79 53 118 67 190 16 85 16 3225 0 3310 -45 232 -200 432 -417 533 -37 18 -74 32 -83 32 -8 0 -27 6 -42 14 -32 16 -226 26 -327 17z m335 -150 c205 -71 367 -249 410 -451 8 -41 10 -478 8 -1680 -3 -1823 4 -1656 -79 -1795 -77 -130 -168 -205 -331 -272 -59 -25 -74 -26 -223 -27 -146 -1 -166 1 -225 23 -214 80 -362 243 -405 448 -22 103 -22 3194 0 3308 30 160 149 318 295 394 123 65 200 81 355 77 102 -2 144 -8 195 -25z"/> </g> </svg> 